<svg width="108" height="15" viewBox="0 0 108 15" fill="none" xmlns="http://www.w3.org/2000/svg">
<path d="M11.62 1.228V11H9.66V4.644L7.042 11H5.558L2.926 4.644V11H0.966V1.228H3.192L6.3 8.494L9.408 1.228H11.62ZM13.0538 7.094C13.0538 6.31 13.2078 5.61467 13.5158 5.008C13.8331 4.40133 14.2578 3.93467 14.7898 3.608C15.3311 3.28133 15.9331 3.118 16.5958 3.118C17.1745 3.118 17.6785 3.23467 18.1078 3.468C18.5465 3.70133 18.8965 3.99533 19.1578 4.35V3.244H21.1318V11H19.1578V9.866C18.9058 10.23 18.5558 10.5333 18.1078 10.776C17.6691 11.0093 17.1605 11.126 16.5818 11.126C15.9285 11.126 15.3311 10.958 14.7898 10.622C14.2578 10.286 13.8331 9.81467 13.5158 9.208C13.2078 8.592 13.0538 7.88733 13.0538 7.094ZM19.1578 7.122C19.1578 6.646 19.0645 6.24 18.8778 5.904C18.6911 5.55867 18.4391 5.29733 18.1218 5.12C17.8045 4.93333 17.4638 4.84 17.0998 4.84C16.7358 4.84 16.3998 4.92867 16.0918 5.106C15.7838 5.28333 15.5318 5.54467 15.3358 5.89C15.1491 6.226 15.0558 6.62733 15.0558 7.094C15.0558 7.56067 15.1491 7.97133 15.3358 8.326C15.5318 8.67133 15.7838 8.93733 16.0918 9.124C16.4091 9.31067 16.7451 9.404 17.0998 9.404C17.4638 9.404 17.8045 9.31533 18.1218 9.138C18.4391 8.95133 18.6911 8.69 18.8778 8.354C19.0645 8.00867 19.1578 7.598 19.1578 7.122ZM25.0061 4.448C25.2581 4.03733 25.5847 3.71533 25.9861 3.482C26.3967 3.24867 26.8634 3.132 27.3861 3.132V5.19H26.8681C26.2521 5.19 25.7854 5.33467 25.4681 5.624C25.1601 5.91333 25.0061 6.41733 25.0061 7.136V11H23.0461V3.244H25.0061V4.448ZM29.7002 2.32C29.3549 2.32 29.0656 2.21267 28.8322 1.998C28.6082 1.774 28.4962 1.49867 28.4962 1.172C28.4962 0.845333 28.6082 0.574666 28.8322 0.359999C29.0656 0.135999 29.3549 0.0239995 29.7002 0.0239995C30.0456 0.0239995 30.3302 0.135999 30.5542 0.359999C30.7876 0.574666 30.9042 0.845333 30.9042 1.172C30.9042 1.49867 30.7876 1.774 30.5542 1.998C30.3302 2.21267 30.0456 2.32 29.7002 2.32ZM30.6662 3.244V11H28.7062V3.244H30.6662ZM34.5627 4.364C34.8147 4.00933 35.1601 3.71533 35.5987 3.482C36.0467 3.23933 36.5554 3.118 37.1247 3.118C37.7874 3.118 38.3847 3.28133 38.9167 3.608C39.4581 3.93467 39.8827 4.40133 40.1907 5.008C40.5081 5.60533 40.6667 6.30067 40.6667 7.094C40.6667 7.88733 40.5081 8.592 40.1907 9.208C39.8827 9.81467 39.4581 10.286 38.9167 10.622C38.3847 10.958 37.7874 11.126 37.1247 11.126C36.5554 11.126 36.0514 11.0093 35.6127 10.776C35.1834 10.5427 34.8334 10.2487 34.5627 9.894V14.696H32.6027V3.244H34.5627V4.364ZM38.6647 7.094C38.6647 6.62733 38.5667 6.226 38.3707 5.89C38.1841 5.54467 37.9321 5.28333 37.6147 5.106C37.3067 4.92867 36.9707 4.84 36.6067 4.84C36.2521 4.84 35.9161 4.93333 35.5987 5.12C35.2907 5.29733 35.0387 5.55867 34.8427 5.904C34.6561 6.24933 34.5627 6.65533 34.5627 7.122C34.5627 7.58867 34.6561 7.99467 34.8427 8.34C35.0387 8.68533 35.2907 8.95133 35.5987 9.138C35.9161 9.31533 36.2521 9.404 36.6067 9.404C36.9707 9.404 37.3067 9.31067 37.6147 9.124C37.9321 8.93733 38.1841 8.67133 38.3707 8.326C38.5667 7.98067 38.6647 7.57 38.6647 7.094ZM45.535 11.126C44.7883 11.126 44.1163 10.9627 43.519 10.636C42.9217 10.3 42.4503 9.82867 42.105 9.222C41.769 8.61533 41.601 7.91533 41.601 7.122C41.601 6.32867 41.7737 5.62867 42.119 5.022C42.4737 4.41533 42.9543 3.94867 43.561 3.622C44.1677 3.286 44.8443 3.118 45.591 3.118C46.3377 3.118 47.0143 3.286 47.621 3.622C48.2277 3.94867 48.7037 4.41533 49.049 5.022C49.4037 5.62867 49.581 6.32867 49.581 7.122C49.581 7.91533 49.399 8.61533 49.035 9.222C48.6803 9.82867 48.195 10.3 47.579 10.636C46.9723 10.9627 46.291 11.126 45.535 11.126ZM45.535 9.418C45.8897 9.418 46.221 9.334 46.529 9.166C46.8463 8.98867 47.0983 8.72733 47.285 8.382C47.4717 8.03667 47.565 7.61667 47.565 7.122C47.565 6.38467 47.369 5.82 46.977 5.428C46.5943 5.02667 46.123 4.826 45.563 4.826C45.003 4.826 44.5317 5.02667 44.149 5.428C43.7757 5.82 43.589 6.38467 43.589 7.122C43.589 7.85933 43.771 8.42867 44.135 8.83C44.5083 9.222 44.975 9.418 45.535 9.418ZM53.9867 11.126C53.3521 11.126 52.7827 11.014 52.2787 10.79C51.7747 10.5567 51.3734 10.244 51.0747 9.852C50.7854 9.46 50.6267 9.026 50.5987 8.55H52.5727C52.6101 8.84867 52.7547 9.096 53.0067 9.292C53.2681 9.488 53.5901 9.586 53.9727 9.586C54.3461 9.586 54.6354 9.51133 54.8407 9.362C55.0554 9.21267 55.1627 9.02133 55.1627 8.788C55.1627 8.536 55.0321 8.34933 54.7707 8.228C54.5187 8.09733 54.1127 7.95733 53.5527 7.808C52.9741 7.668 52.4981 7.52333 52.1247 7.374C51.7607 7.22467 51.4434 6.996 51.1727 6.688C50.9114 6.38 50.7807 5.96467 50.7807 5.442C50.7807 5.01267 50.9021 4.62067 51.1447 4.266C51.3967 3.91133 51.7514 3.63133 52.2087 3.426C52.6754 3.22067 53.2214 3.118 53.8467 3.118C54.7707 3.118 55.5081 3.35133 56.0587 3.818C56.6094 4.27533 56.9127 4.896 56.9687 5.68H55.0927C55.0647 5.372 54.9341 5.12933 54.7007 4.952C54.4767 4.76533 54.1734 4.672 53.7907 4.672C53.4361 4.672 53.1607 4.73733 52.9647 4.868C52.7781 4.99867 52.6847 5.18067 52.6847 5.414C52.6847 5.67533 52.8154 5.876 53.0767 6.016C53.3381 6.14667 53.7441 6.282 54.2947 6.422C54.8547 6.562 55.3167 6.70667 55.6807 6.856C56.0447 7.00533 56.3574 7.23867 56.6187 7.556C56.8894 7.864 57.0294 8.27467 57.0387 8.788C57.0387 9.236 56.9127 9.63733 56.6607 9.992C56.4181 10.3467 56.0634 10.6267 55.5967 10.832C55.1394 11.028 54.6027 11.126 53.9867 11.126ZM58.1436 7.094C58.1436 6.31 58.2976 5.61467 58.6056 5.008C58.923 4.40133 59.3476 3.93467 59.8796 3.608C60.421 3.28133 61.023 3.118 61.6856 3.118C62.2643 3.118 62.7683 3.23467 63.1976 3.468C63.6363 3.70133 63.9863 3.99533 64.2476 4.35V3.244H66.2216V11H64.2476V9.866C63.9956 10.23 63.6456 10.5333 63.1976 10.776C62.759 11.0093 62.2503 11.126 61.6716 11.126C61.0183 11.126 60.421 10.958 59.8796 10.622C59.3476 10.286 58.923 9.81467 58.6056 9.208C58.2976 8.592 58.1436 7.88733 58.1436 7.094ZM64.2476 7.122C64.2476 6.646 64.1543 6.24 63.9676 5.904C63.781 5.55867 63.529 5.29733 63.2116 5.12C62.8943 4.93333 62.5536 4.84 62.1896 4.84C61.8256 4.84 61.4896 4.92867 61.1816 5.106C60.8736 5.28333 60.6216 5.54467 60.4256 5.89C60.239 6.226 60.1456 6.62733 60.1456 7.094C60.1456 7.56067 60.239 7.97133 60.4256 8.326C60.6216 8.67133 60.8736 8.93733 61.1816 9.124C61.499 9.31067 61.835 9.404 62.1896 9.404C62.5536 9.404 62.8943 9.31533 63.2116 9.138C63.529 8.95133 63.781 8.69 63.9676 8.354C64.1543 8.00867 64.2476 7.598 64.2476 7.122ZM74.8459 11.098C74.1645 11.098 73.5485 10.9813 72.9979 10.748C72.4565 10.5147 72.0272 10.1787 71.7099 9.74C71.3925 9.30133 71.2292 8.78333 71.2199 8.186H73.3199C73.3479 8.58733 73.4879 8.90467 73.7399 9.138C74.0012 9.37133 74.3559 9.488 74.8039 9.488C75.2612 9.488 75.6205 9.38067 75.8819 9.166C76.1432 8.942 76.2739 8.65267 76.2739 8.298C76.2739 8.00867 76.1852 7.77067 76.0079 7.584C75.8305 7.39733 75.6065 7.25267 75.3359 7.15C75.0745 7.038 74.7105 6.91667 74.2439 6.786C73.6092 6.59933 73.0912 6.41733 72.6899 6.24C72.2979 6.05333 71.9572 5.778 71.6679 5.414C71.3879 5.04067 71.2479 4.546 71.2479 3.93C71.2479 3.35133 71.3925 2.84733 71.6819 2.418C71.9712 1.98867 72.3772 1.662 72.8999 1.438C73.4225 1.20467 74.0199 1.088 74.6919 1.088C75.6999 1.088 76.5165 1.33533 77.1419 1.83C77.7765 2.31533 78.1265 2.99667 78.1919 3.874H76.0359C76.0172 3.538 75.8725 3.26267 75.6019 3.048C75.3405 2.824 74.9905 2.712 74.5519 2.712C74.1692 2.712 73.8612 2.81 73.6279 3.006C73.4039 3.202 73.2919 3.48667 73.2919 3.86C73.2919 4.12133 73.3759 4.34067 73.5439 4.518C73.7212 4.686 73.9359 4.826 74.1879 4.938C74.4492 5.04067 74.8132 5.162 75.2799 5.302C75.9145 5.48867 76.4325 5.67533 76.8339 5.862C77.2352 6.04867 77.5805 6.32867 77.8699 6.702C78.1592 7.07533 78.3039 7.56533 78.3039 8.172C78.3039 8.69467 78.1685 9.18 77.8979 9.628C77.6272 10.076 77.2305 10.4353 76.7079 10.706C76.1852 10.9673 75.5645 11.098 74.8459 11.098ZM87.1291 4.252C87.1291 4.77467 87.0031 5.26467 86.7511 5.722C86.5084 6.17933 86.1211 6.548 85.5891 6.828C85.0664 7.108 84.4038 7.248 83.6011 7.248H81.9631V11H80.0031V1.228H83.6011C84.3571 1.228 85.0011 1.35867 85.5331 1.62C86.0651 1.88133 86.4618 2.24067 86.7231 2.698C86.9938 3.15533 87.1291 3.67333 87.1291 4.252ZM83.5171 5.666C84.0584 5.666 84.4598 5.54467 84.7211 5.302C84.9824 5.05 85.1131 4.7 85.1131 4.252C85.1131 3.3 84.5811 2.824 83.5171 2.824H81.9631V5.666H83.5171ZM88.0447 6.1C88.0447 5.13867 88.2594 4.28 88.6887 3.524C89.1274 2.75867 89.72 2.166 90.4667 1.746C91.2227 1.31667 92.0674 1.102 93.0007 1.102C94.0927 1.102 95.0494 1.382 95.8707 1.942C96.692 2.502 97.266 3.27667 97.5927 4.266H95.3387C95.1147 3.79933 94.7974 3.44933 94.3867 3.216C93.9854 2.98267 93.5187 2.866 92.9867 2.866C92.4174 2.866 91.9087 3.00133 91.4607 3.272C91.022 3.53333 90.6767 3.90667 90.4247 4.392C90.182 4.87733 90.0607 5.44667 90.0607 6.1C90.0607 6.744 90.182 7.31333 90.4247 7.808C90.6767 8.29333 91.022 8.67133 91.4607 8.942C91.9087 9.20333 92.4174 9.334 92.9867 9.334C93.5187 9.334 93.9854 9.21733 94.3867 8.984C94.7974 8.74133 95.1147 8.38667 95.3387 7.92H97.5927C97.266 8.91867 96.692 9.698 95.8707 10.258C95.0587 10.8087 94.102 11.084 93.0007 11.084C92.0674 11.084 91.2227 10.874 90.4667 10.454C89.72 10.0247 89.1274 9.432 88.6887 8.676C88.2594 7.92 88.0447 7.06133 88.0447 6.1ZM105.259 9.138H101.367L100.723 11H98.6648L102.179 1.214H104.461L107.975 11H105.903L105.259 9.138ZM104.727 7.57L103.313 3.482L101.899 7.57H104.727Z" fill="black"/>
</svg>
